<?xml version="1.0" encoding="UTF-8" standalone="no"?>
<svg
   viewBox="0 0 512.00001 292.53399"
   version="1.1"
   id="svg4"
   width="512"
   height="292.534"
   xmlns="http://www.w3.org/2000/svg"
   xmlns:svg="http://www.w3.org/2000/svg">
  <defs
     id="defs8" />
  <path
     d="m 24.336737,248.51245 v 41.6248 H 0 V 175.66358 h 41.786161 c 15.048505,0 26.602896,3.14967 34.66317,9.449 8.056649,6.29689 12.086182,15.31621 12.088599,27.05792 0.624008,13.90106 -7.684453,26.65255 -20.652867,31.69723 4.80184,7.57803 9.551105,15.18327 14.247795,22.81568 4.695483,7.63242 9.392173,15.45036 14.090071,23.45384 H 67.885063 c -7.685604,-14.09006 -15.637103,-27.965 -23.854497,-41.6248 z m 0,-19.37112 h 16.00996 c 7.576826,0 13.340727,-1.36031 17.291701,-4.08092 3.946138,-2.72663 5.920415,-7.02326 5.922832,-12.88991 0,-5.87146 -1.947688,-10.1953 -5.843063,-12.97149 -3.897794,-2.77377 -9.635106,-4.16067 -17.211932,-4.16067 H 24.336737 Z m 168.263223,60.99592 c -2.77741,-8.4289 -5.55239,-16.70007 -8.32496,-24.81353 h -46.42907 c -2.77741,8.21618 -5.55239,16.48737 -8.32496,24.81353 H 103.1048 c 7.25775,-20.06306 14.64966,-39.64933 22.17573,-58.75879 7.52365,-19.10099 15.12827,-37.67201 22.81388,-55.71305 h 26.5757 c 7.89711,18.99948 15.6087,38.07933 23.13476,57.23954 7.52608,19.15902 14.81101,38.23706 21.85484,57.23413 h -27.05975 z m -47.71081,-45.30868 h 32.18127 c -2.56227,-7.47289 -5.2037,-14.91676 -7.9243,-22.33163 -2.72181,-7.41851 -5.41703,-14.70344 -8.08566,-21.85484 -5.55118,14.61945 -10.94162,29.34828 -16.17131,44.18647 z m 88.69748,-69.16499 h 43.70785 c 12.0596,0 22.38602,2.24079 30.9793,6.72234 8.39716,4.29371 15.25063,11.09331 19.61044,19.45634 4.48397,8.48209 6.72474,18.75354 6.72234,30.81433 0,12.06442 -2.26738,22.39086 -6.80211,30.9793 -4.36545,8.41865 -11.21079,15.29373 -19.61043,19.69564 -8.5413,4.53957 -18.89434,6.80693 -31.05908,6.80209 h -43.54831 z m 42.26838,93.34039 c 10.66969,0 18.8617,-3.12307 24.57604,-9.36921 5.70711,-6.2401 8.56187,-15.23283 8.56427,-26.97817 0,-11.62813 -2.80158,-20.51268 -8.40473,-26.65366 -5.60436,-6.13979 -13.79637,-9.20785 -24.57604,-9.20422 h -17.77212 v 72.20526 z m 78.28584,-93.34039 h 24.654 v 114.47367 h -24.654 z m 101.02355,-2.40393 c 8.01153,-0.11264 15.97122,1.30125 23.45384,4.16611 6.77126,2.62782 12.88991,6.69701 17.93166,11.92542 5.08314,5.37377 8.98323,11.75349 11.44864,18.72754 5.33528,16.0328 5.33528,33.36224 0,49.39503 -2.46224,7.02343 -6.36136,13.45651 -11.44864,18.88889 -5.0214,5.27331 -11.14404,9.37427 -17.93166,12.01063 -15.14444,5.54763 -31.76505,5.54763 -46.90949,0 -6.78695,-2.63666 -12.90893,-6.73758 -17.92985,-12.01063 -5.08877,-5.43194 -8.98807,-11.86596 -11.44864,-18.89071 -5.33447,-16.03169 -5.33447,-33.3597 0,-49.39138 2.46285,-6.97582 6.36322,-13.35665 11.44864,-18.72937 5.04047,-5.22909 11.15869,-9.29842 17.92985,-11.92542 7.4835,-2.86397 15.44362,-4.27782 23.45565,-4.16611 z m 0,97.82375 c 5.92947,0.16023 11.77533,-1.42529 16.81128,-4.55953 4.80301,-3.17531 8.54046,-7.72127 10.72708,-13.04762 4.90698,-13.33139 4.90698,-27.97437 0,-41.30575 -2.17219,-5.31529 -5.91449,-9.84124 -10.72708,-12.9733 -10.41103,-5.97305 -23.2097,-5.97305 -33.62074,0 -4.81437,3.13006 -8.55721,7.65664 -10.72708,12.9733 -4.91174,13.33053 -4.91174,27.97522 0,41.30575 2.18486,5.3274 5.9227,9.87382 10.72708,13.04762 5.03504,3.13477 10.88049,4.72035 16.80946,4.55953 z M 0,0 V 145.11395 H 145.11395 V 0 Z m 101.1976,102.41045 c -2.685284,3.65981 -6.364227,6.47234 -10.600184,8.10379 -5.272043,2.02663 -10.891141,2.99681 -16.537523,2.85535 H 41.539603 V 31.742543 h 30.633033 c 9.02596,0 16.01842,1.806885 20.977381,5.420653 4.954792,3.60358 7.752603,9.467247 7.436623,15.585736 0.0881,3.55219 -0.835564,7.056214 -2.663184,10.103443 -1.916784,2.977033 -4.653678,5.336162 -7.880797,6.79304 4.388556,1.305875 8.253375,3.962779 11.044351,7.59254 2.61882,3.674893 3.96351,8.105626 3.82891,12.61616 0.11878,4.473239 -1.18295,8.869072 -3.71832,12.556335 z M 80.443211,62.507919 c 2.289041,-1.933581 3.541472,-4.826851 3.384735,-7.819155 0,-6.468524 -4.402996,-9.702786 -13.208989,-9.702786 H 58.077126 v 20.3211 h 12.541831 c 3.500459,0.238833 6.974645,-0.750402 9.824254,-2.797345 z m -7.71582,15.585737 H 58.077126 v 22.034314 h 14.429088 c 4.006468,0.248 7.993625,-0.728246 11.432319,-2.799156 2.637496,-1.808813 4.149586,-4.854947 3.995693,-8.049397 0,-7.459592 -5.068946,-11.188783 -15.206835,-11.187574 z M 181.39425,0 V 145.11395 H 326.50821 V 0 Z m 101.19579,102.41045 c -2.68521,3.65988 -6.36418,6.47243 -10.60018,8.10379 -5.27205,2.02663 -10.89114,2.99681 -16.53753,2.85535 H 222.93205 V 31.742543 h 30.63302 c 9.02596,0 16.01843,1.806885 20.97739,5.420653 4.95479,3.603578 7.7526,9.467245 7.43664,15.585736 0.088,3.55219 -0.83559,7.056214 -2.6632,10.103443 -1.9168,2.977033 -4.65368,5.336164 -7.88081,6.79304 4.38857,1.305873 8.25339,3.962775 11.04437,7.59254 2.61882,3.674895 3.9635,8.105628 3.82889,12.61616 0.11898,4.473254 -1.18284,8.869125 -3.71831,12.556335 z m -20.7544,-39.902531 c 2.28904,-1.933581 3.54148,-4.826851 3.38474,-7.819155 0,-6.468524 -4.403,-9.702786 -13.20899,-9.702786 h -12.54182 v 20.3211 h 12.54182 c 3.50045,0.238833 6.97465,-0.750402 9.82425,-2.797345 z m -7.71581,15.585737 h -14.65026 v 22.034314 h 14.42909 c 4.00627,0.24854 7.99342,-0.727066 11.43232,-2.797344 2.63749,-1.80881 4.14958,-4.854947 3.9957,-8.049397 0,-7.459591 -5.06896,-11.188781 -15.20685,-11.187573 z M 362.78669,145.11395 H 507.90065 V 0 H 362.78669 Z m 104.22157,-36.91664 c -3.70369,1.98813 -7.65553,3.47448 -11.75139,4.41992 -4.60454,1.09838 -9.32374,1.64309 -14.05744,1.62257 -5.99741,0.0876 -11.96364,-0.87823 -17.6271,-2.85355 -10.08034,-3.44238 -18.0225,-11.32172 -21.54483,-21.37441 -1.99369,-5.619956 -2.96922,-11.550417 -2.88074,-17.512878 -0.0857,-5.862394 0.93081,-11.688703 2.99677,-17.175672 1.89562,-4.956625 4.8442,-9.442896 8.64222,-13.149164 3.8693,-3.722108 8.48285,-6.58279 13.53713,-8.393853 5.67651,-2.008202 11.66443,-2.992788 17.6851,-2.907935 4.32138,-0.02253 8.63126,0.447021 12.84641,1.399581 3.90087,0.884745 7.67484,2.257041 11.2329,4.084524 v 15.890308 c -3.15954,-2.091455 -6.61637,-3.694576 -10.2539,-4.755308 -3.78151,-1.094557 -7.70049,-1.640981 -11.63719,-1.622571 -4.96548,-0.143772 -9.89049,0.931867 -14.34388,3.132739 -3.88839,2.020689 -7.06497,5.183345 -9.10271,9.062823 -2.23238,4.4759 -3.32114,9.435124 -3.169,14.434528 -0.14516,5.003942 0.90121,9.970722 3.05297,14.490727 1.93512,3.889263 5.0363,7.077272 8.87065,9.119025 4.37054,2.202669 9.2216,3.280057 14.11365,3.134552 8.26341,0.05299 16.37275,-2.236304 23.38856,-6.602683 V 108.1955 Z"
     id="path2"
     style="stroke-width:1.98307" />
</svg>
